<?xml version="1.0" encoding="utf-8"?>
<!-- Generator: Adobe Illustrator 22.1.0, SVG Export Plug-In . SVG Version: 6.00 Build 0)  -->
<svg version="1.1" id="Capa_1" xmlns="http://www.w3.org/2000/svg" xmlns:xlink="http://www.w3.org/1999/xlink" x="0px" y="0px"
	 viewBox="0 0 20 20" style="enable-background:new 0 0 20 20;" xml:space="preserve">
<style type="text/css">
	.st0{fill:#FFFFFF;}
</style>
<g>
	<polygon class="st0" points="-63.5,13.7 -63.5,16.6 -76.5,16.6 -76.5,13.7 -79.5,13.7 -79.5,19.5 -60.5,19.5 -60.5,13.7 	"/>
	<polygon class="st0" points="-71.5,6.9 -71.5,13.7 -68.5,13.7 -68.5,6.9 -63.5,6.9 -70,0.5 -76.6,6.9 	"/>
</g>
<g transform="translate(0,-952.36218)">
	<path class="st0" d="M-23.8,955.3l-8.7,9l-4-3.5l-3,3.4l5.6,4.9l1.6,1.4l1.5-1.5l10.1-10.5L-23.8,955.3L-23.8,955.3z"/>
</g>
<g>
	<g>
		<polygon class="st0" points="14.9,1.5 10,6.5 5,1.5 1.4,5.1 6.4,10 1.4,15 5,18.6 10,13.6 14.9,18.6 18.5,15 13.5,10 18.5,5.1 		
			"/>
	</g>
</g>
</svg>
